<svg width="48" height="48" xmlns="http://www.w3.org/2000/svg">

 <g>
  <title>background</title>
  <rect fill="none" id="canvas_background" height="402" width="582" y="-1" x="-1"/>
 </g>
 <g>
  <title>Layer 1</title>
  <circle fill="#00214c" id="svg_9" r="24" cy="24" cx="24" class="st1"/>
  <path fill="#00bbef" id="svg_12" d="m21.227273,22.9c-0.4,-0.4 -0.9,-0.8 -1.4,-1.1c-4.4,-3 -10.3,-1.8 -13.3,2.6c-0.3,0.5 -0.6,1 -0.8,1.6c2.9,-1.8 6.7,-1.9 9.7,0.1c0.9,0.6 1.6,1.3 2.2,2.1l3.6,-5.3z" class="st0"/>
  <path fill="#00bbef" id="svg_13" d="m25.1,26.7c0.4,0.4 0.8,0.9 1.1,1.4c2.9,4.4 1.8,10.3 -2.6,13.2c-0.5,0.3 -1.1,0.6 -1.6,0.9c1.8,-2.9 1.9,-6.7 -0.1,-9.7c-0.6,-0.9 -1.3,-1.6 -2.1,-2.2l5.3,-3.6z" class="st0"/>
  <path fill="#dbfaff" id="svg_16" d="m36.5,18.7c-1,2.8 -2.5,5.8 -5,8.3c-4.1,4.1 -8.5,6.8 -12,7.5l-5.9,-5.9c0.8,-3.5 3.5,-8 7.5,-12c2.5,-2.5 5.5,-4 8.3,-5l7.1,7.1z" class="st6"/>
  <path stroke="null" fill="#00bbef" id="svg_18" d="m36.511203,18.758651c1.589456,-4.669027 1.688797,-8.841349 1.688797,-8.841349s-4.072981,0.099341 -8.841349,1.688797l7.152552,7.152552z" class="st0"/>
  <ellipse fill="#0f1c70" id="svg_19" transform="matrix(0.7071,-0.7071,0.7071,0.7071,-6.0975,25.5921) " ry="3.6" rx="3.6" cy="20.2" cx="27.8" class="st1"/>
  <ellipse fill="#ffffff" id="svg_20" transform="matrix(0.7071,-0.7071,0.7071,0.7071,-6.0975,25.5921) " ry="2.5" rx="2.5" cy="20.2" cx="27.8" class="st4"/>
  <path fill="#00bbef" id="svg_22" d="m18.2,31.8c-2.9,2.8 -6.2,4.2 -6.2,4.2s1.4,-3.3 4.2,-6.2s6.2,-4.2 6.2,-4.2s-1.4,3.3 -4.2,6.2z" class="st0"/>
 </g>
</svg>