<svg width="550" height="600" xmlns="http://www.w3.org/2000/svg">

 <g>
  <title>background</title>
  <rect fill="none" id="canvas_background" height="602" width="552" y="-1" x="-1"/>
 </g>
 <g>
  <title>Layer 1</title>
  <path stroke="null" fill="#ffeafe" transform="rotate(-47.35304641723633 280.83862304687494,188.12017822265622) " id="svg_2" fill-rule="evenodd" clip-rule="evenodd" d="m403.093631,93.659937c-5.730135,0 -11.489578,2.321335 -15.86045,6.913778c-4.370079,4.647693 -6.568981,10.731885 -6.568981,16.818588c0,6.05573 2.198902,12.141596 6.568981,16.75999c4.371664,4.620068 10.130315,6.943915 15.86045,6.943915c5.758651,0 11.515718,-2.323847 15.887382,-6.943915c4.397011,-4.590769 6.568981,-10.676635 6.568981,-16.75999c0,-6.086703 -2.197317,-12.144945 -6.568981,-16.790963c-4.371664,-4.619231 -10.129523,-6.941403 -15.887382,-6.941403m-50.749004,262.988947c-2.905465,0 -5.83707,1.161923 -8.035972,3.511721c-2.224249,2.323847 -3.322908,5.42203 -3.322908,8.492588c0,3.069721 1.099451,6.140279 3.322908,8.491751c2.19811,2.322172 5.130507,3.512558 8.035972,3.512558c2.904673,0 5.809346,-1.190385 8.008248,-3.512558c2.225833,-2.351472 3.34984,-5.42203 3.34984,-8.491751c0,-3.015308 -1.073311,-6.002154 -3.166862,-8.326001l-0.182978,-0.16575c-2.198902,-2.350634 -5.103575,-3.512558 -8.008248,-3.512558zm-188.318187,-163.580885c-4.502362,0 -9.030072,1.826597 -12.458331,5.449655c-3.429051,3.623058 -5.156646,8.408876 -5.156646,13.166232c0,4.758193 1.727595,9.542337 5.156646,13.166232c3.428259,3.623058 7.929829,5.449655 12.458331,5.449655c4.500778,0 9.02928,-1.826597 12.458331,-5.449655c3.453606,-3.650683 5.155062,-8.408039 5.155062,-13.166232c0,-4.757356 -1.701456,-9.542337 -5.155062,-13.166232c-3.429051,-3.623058 -7.957553,-5.449655 -12.458331,-5.449655zm185.91096,-167.50698l-15.83431,-8.575463l7.955969,16.430165c1.30936,2.379934 0.995684,5.53253 -0.942613,7.580126l-12.589029,13.275894l17.301301,-2.931596c2.564065,-0.554174 5.260413,0.719087 6.48977,3.291558l8.03518,16.790126l2.722487,-18.394049c0.313676,-2.682971 2.277321,-4.951568 4.945945,-5.393568l17.588837,-2.903971l-15.86045,-8.520213c-2.250389,-1.190385 -3.585889,-3.789645 -3.193002,-6.554654l2.826254,-18.559799l-12.562097,13.304356c-1.753735,1.851711 -4.528502,2.405047 -6.884242,1.161086zm-144.009051,96.781178c-1.386987,-1.438173 -1.386987,-3.81727 0,-5.282231c1.360848,-1.43901 3.612821,-1.43901 4.999808,0l171.489777,181.226548c1.36164,1.464961 1.36164,3.844057 0,5.282231c-1.386195,1.465798 -3.612821,1.465798 -4.999016,0l-171.490569,-181.226548zm47.640758,-11.782471c-1.386987,-1.465798 -1.386987,-3.818107 0,-5.283905c1.362432,-1.465798 3.612821,-1.465798 4.999808,0l98.121236,103.696631c1.387779,1.465798 1.387779,3.81727 0,5.283905c-1.360056,1.464961 -3.612821,1.464961 -4.999016,0l-98.122028,-103.696631zm-43.977242,-108.592949c-1.386195,-1.465798 -1.386195,-3.844057 0,-5.283905c1.362432,-1.466635 3.612821,-1.466635 4.999808,0l119.1716,125.935575c1.386195,1.464961 1.386195,3.816432 0,5.283068c-1.36164,1.465798 -3.612821,1.465798 -4.999016,0l-119.172393,-125.934737zm16.933761,69.454216c1.362432,1.43901 1.362432,3.81727 0,5.283068c-1.386987,1.438173 -3.637376,1.438173 -4.998224,0l-20.440439,-21.601895c-1.386987,-1.466635 -1.386987,-3.818107 0,-5.284742c1.386987,-1.465798 3.611237,-1.465798 4.998224,0l20.440439,21.603569zm200.149958,273.666419c1.360848,1.438173 1.360848,3.816432 0,5.255443c-1.387779,1.465798 -3.612821,1.465798 -5.0006,0l-20.440439,-21.575944c-1.360848,-1.465798 -1.360848,-3.816432 0,-5.282231c1.386987,-1.438173 3.638961,-1.438173 4.999808,0l20.441231,21.602732zm-93.775712,-37.008261c1.360056,1.465798 1.360056,3.844057 0,5.282231c-1.387779,1.465798 -3.638961,1.465798 -5.0006,0l-20.441231,-21.57427c-1.386987,-1.466635 -1.386987,-3.844057 0,-5.283068c1.387779,-1.466635 3.612821,-1.466635 5.0006,0l20.441231,21.575107zm107.359633,-72.913198c1.387779,1.466635 1.387779,3.818107 0,5.283905c-1.360848,1.465798 -3.612821,1.465798 -4.999808,0l-54.177262,-57.255695c-1.360848,-1.466635 -1.360848,-3.818107 0,-5.283068c1.386987,-1.43901 3.638961,-1.43901 4.999808,0l54.177262,57.254858zm-318.842331,-140.01343c-1.386987,-1.43901 -1.386987,-3.818107 0,-5.283068c1.360848,-1.43901 3.611237,-1.43901 4.972084,0l171.515917,181.254173c1.36164,1.438173 1.36164,3.81727 0,5.254606c-1.386987,1.466635 -3.637376,1.466635 -4.998224,0l-171.489777,-181.225711zm115.846316,186.260991l-15.866787,-8.573788l7.955969,16.429327c1.334708,2.379097 1.02024,5.531692 -0.916473,7.606914l-12.615169,13.248269l17.332985,-2.931596c2.53951,-0.5525 5.234273,0.719087 6.464422,3.32002l8.03518,16.761664l2.747835,-18.366424c0.313676,-2.710596 2.277321,-4.979193 4.946737,-5.42203l17.587253,-2.903971l-15.885797,-8.492588c-2.225833,-1.216336 -3.585889,-3.816432 -3.167654,-6.582279l2.827046,-18.560636l-12.562097,13.305194c-1.753735,1.881847 -4.553849,2.434346 -6.883449,1.161923zm-98.70423,-265.036544c-2.224249,2.323847 -3.34984,5.42203 -3.34984,8.492588c0,3.042933 1.125591,6.140279 3.322908,8.464126c2.225833,2.349797 5.130507,3.540183 8.035972,3.540183c2.827046,0 5.67944,-1.133461 7.878342,-3.345971l0.156838,-0.193375c2.225833,-2.323847 3.3237,-5.393568 3.3237,-8.464126s-1.097867,-6.167904 -3.3237,-8.492588c-2.198902,-2.349797 -5.103575,-3.511721 -8.03518,-3.511721c-2.904673,-0.000837 -5.810138,1.161086 -8.00904,3.510883z"/>
 </g>
</svg>