<svg width="1250" height="1000" xmlns="http://www.w3.org/2000/svg">

 <g>
  <title>background</title>
  <rect fill="none" id="canvas_background" height="1002" width="1252" y="-1" x="-1"/>
 </g>
 <g>
  <title>Layer 1</title>
  <path id="svg_1" fill="#5AA096" d="m845.006516,715.489576c-5.742,-5.741 -12.449,-9.92 -19.596,-12.566l0,-145.686c0,-5.216 -4.268,-9.485 -9.484,-9.485s-9.486,4.269 -9.486,9.485l0,142.278c-5.502,0 -11,0.842 -16.299,2.496l0,-98.533c0,-5.217 -4.27,-9.485 -9.486,-9.485c-2.758,0 -5.242,1.2 -6.979,3.095l0,-63.682c0,-7.108 -5.816,-12.924 -12.924,-12.924c-0.359,0 -0.715,0.025 -1.066,0.055l0,-37.109c0,-5.217 -4.27,-9.485 -9.486,-9.485s-9.484,4.269 -9.484,9.485l0,240.848c-6.881,5.009 -12.104,11.963 -15.006,19.898c-0.072,-0.74 -0.188,-1.484 -0.33,-2.229l0,-187.198c0,-7.108 -5.816,-12.924 -12.924,-12.924s-12.924,5.815 -12.924,12.924l0,168.704c-0.643,0.089 -1.287,0.2 -1.932,0.346c-5.502,1.243 -10.096,4.354 -13.27,8.511c-0.053,-0.382 -0.094,-0.763 -0.156,-1.146c-4.131,-25.458 -28.119,-42.746 -53.577,-38.615c-18.157,2.946 -32.151,15.996 -37.19,32.473c-5.03,-10.191 -15.521,-17.203 -27.655,-17.203c-5.616,0 -10.879,1.505 -15.413,4.13l0,-116.77c0,-9.129 -7.47,-16.599 -16.599,-16.599c-9.13,0 -16.599,7.47 -16.599,16.599l0,133.894c-1.577,0.23 -3.117,0.574 -4.607,1.032c-2.174,-3.507 -4.767,-6.827 -7.811,-9.871c-0.946,-0.946 -1.928,-1.836 -2.924,-2.698l0,-165.04c0,-5.217 -4.269,-9.485 -9.485,-9.485s-9.485,4.269 -9.485,9.485l0,154.379c-4.653,-1.49 -9.463,-2.35 -14.299,-2.559l0,-105.58c0,-5.217 -4.269,-9.485 -9.485,-9.485s-9.485,4.269 -9.485,9.485l0,108.115c-8.033,2.56 -15.594,7.011 -21.966,13.383c-21.299,21.3 -21.299,55.832 0,77.131c21.299,21.3 55.832,21.3 77.131,0c2.674,-2.674 5.011,-5.557 7.014,-8.596c3.103,1.05 6.423,1.628 9.881,1.628c0.046,0 0.091,-0.005 0.138,-0.006c3.028,3.172 7.281,5.164 11.984,5.164c1.737,0 3.413,-0.274 4.99,-0.775c20.67,6.297 50.687,10.26 84.095,10.26c37.3,0 70.37,-4.939 90.929,-12.553c4.063,3.549 9.377,5.704 15.195,5.704c4.824,0 9.301,-1.478 13.006,-4.004c9.119,6.147 20.592,8.794 32.229,6.467c0.959,-0.192 1.9,-0.425 2.83,-0.678c21.113,13.558 49.523,11.114 67.992,-7.354c21.297,-21.299 21.297,-55.831 -0.002,-77.131z"/>
  <ellipse id="svg_2" ry="23.12" rx="161.248" fill="#2F485E" cy="808.003576" cx="636.299516"/>
  <path id="svg_3" fill="#466C6F" d="m845.006516,715.489576c-5.742,-5.741 -12.449,-9.92 -19.596,-12.566l0,-145.686c0,-5.216 -4.268,-9.485 -9.484,-9.485s-9.486,4.269 -9.486,9.485l0,142.278c-5.502,0 -11,0.842 -16.299,2.496l0,-98.533c0,-5.217 -4.27,-9.485 -9.486,-9.485c-5.215,0 -9.484,4.269 -9.484,9.485l0,108.994c-1.127,0.958 -2.232,1.953 -3.295,3.017c-0.215,0.214 -0.412,0.438 -0.621,0.653c-2.494,-0.083 -5.023,0.044 -7.568,0.415l0,-233.131c0,-5.217 -4.27,-9.485 -9.486,-9.485s-9.484,4.269 -9.484,9.485l0,240.848c-6.881,5.009 -12.104,11.963 -15.006,19.898c-0.094,-0.97 -0.242,-1.943 -0.461,-2.92c-2.814,-12.455 -15.193,-20.271 -27.648,-17.456c-5.502,1.243 -10.096,4.354 -13.27,8.511c-0.053,-0.382 -0.094,-0.763 -0.156,-1.146c-4.131,-25.458 -28.119,-42.746 -53.577,-38.615c-18.157,2.946 -32.151,15.996 -37.19,32.473c-5.03,-10.191 -15.521,-17.203 -27.655,-17.203c-14.783,0 -27.13,10.408 -30.127,24.295c-4.204,-2.148 -8.961,-3.369 -14.007,-3.369c-3.162,0 -6.212,0.479 -9.084,1.362c-2.174,-3.507 -4.767,-6.827 -7.811,-9.871c-0.946,-0.946 -1.928,-1.836 -2.924,-2.698l0,-165.04c0,-5.217 -4.269,-9.485 -9.485,-9.485s-9.485,4.269 -9.485,9.485l0,154.379c-4.653,-1.49 -9.463,-2.35 -14.299,-2.559l0,-105.58c0,-5.217 -4.269,-9.485 -9.485,-9.485s-9.485,4.269 -9.485,9.485l0,108.115c-8.033,2.56 -15.594,7.011 -21.966,13.383c-21.299,21.3 -21.299,55.832 0,77.131c21.299,21.3 55.832,21.3 77.131,0c2.674,-2.674 5.011,-5.557 7.014,-8.596c3.103,1.05 6.423,1.628 9.881,1.628c1.493,0 2.958,-0.112 4.395,-0.317c19.747,8.964 55.713,14.96 96.813,14.96c37.3,0 70.37,-4.939 90.929,-12.553c4.063,3.549 9.377,5.704 15.195,5.704c4.824,0 9.301,-1.478 13.006,-4.004c9.119,6.147 20.592,8.794 32.229,6.467c0.959,-0.192 1.9,-0.425 2.83,-0.678c21.113,13.558 49.523,11.114 67.992,-7.354c21.294,-21.3 21.294,-55.832 -0.005,-77.132z"/>
  <polygon id="svg_4" points="654.3585205078125,668.9165649414062 618.2435302734375,668.9165649414062 609.3095092773438,770.1655883789062 663.2904663085938,770.1655883789062 " fill="#FF7143"/>
  <polygon id="svg_5" points="627.2374877929688,668.9165649414062 619.8404541015625,770.1655883789062 652.7584838867188,770.1655883789062 645.3624877929688,668.9165649414062 " fill="#FFD800"/>
  <rect id="svg_6" y="652.276576" x="614.959516" width="42.683" height="16.64" fill="#52C9D5"/>
  <rect id="svg_7" y="652.276576" x="614.959516" width="42.683" height="16.64" fill="#52C9D5"/>
  <polygon id="svg_8" points="615.08447265625,680.4915771484375 581.8055419921875,680.4915771484375 587.6474609375,639.8395385742188 605.6795043945312,611.0405883789062 615.08447265625,611.0405883789062 " fill="#DDDDDD"/>
  <polygon id="svg_9" points="657.5164794921875,680.4915771484375 690.7944946289062,680.4915771484375 684.9525146484375,639.8395385742188 666.9215087890625,611.0405883789062 657.5164794921875,611.0405883789062 " fill="#C6C6C6"/>
  <path id="svg_10" fill="#F4F4F4" d="m636.344516,392.562576l0,-0.003c-0.016,0 -0.029,0.001 -0.045,0.001s-0.029,-0.001 -0.045,-0.001l0,0.003c-23.332,0.09 -42.231,74.63 -42.231,135.282c0,36.209 8.134,100.243 20.256,124.432c0,0 20.469,0 21.975,0c0.053,0 0.086,0 0.09,0c1.506,0 21.975,0 21.975,0c12.123,-24.189 20.258,-88.223 20.258,-124.432c0,-60.652 -18.901,-135.192 -42.233,-135.282z"/>
  <circle id="svg_11" r="25.506001" fill="#52C9D5" cy="535.974819" cx="636.300516"/>
  <circle id="svg_12" r="17.57" fill="#FFFFFF" cy="536.584576" cx="636.299516"/>
  <rect id="svg_13" y="652.276576" x="614.959516" width="42.683" height="16.64" fill="#52C9D5"/>
  <path id="svg_14" fill="#52C9D5" d="m636.299516,392.561576c-0.016,0 -0.029,-0.001 -0.045,-0.001l0,0.002c-17.46,0.067 -32.437,41.827 -38.87,88.258l77.829,0c-6.432,-46.432 -21.408,-88.191 -38.869,-88.258l0,-0.003c-0.015,0 -0.029,0.002 -0.045,0.002z"/>
  <rect id="svg_15" y="652.276576" x="636.534516" width="21.107" height="16.64" fill="#49BAC0"/>
  <path id="svg_16" fill="#E0E0E0" d="m636.534516,392.572576l0,259.704c2.533,0 21.785,0 21.785,0c12.123,-24.189 20.258,-88.223 20.258,-124.432c0,-60.488 -18.799,-134.782 -42.043,-135.272z"/>
  <path id="svg_17" fill="#49BAC0" d="m636.534516,511.085576l0,50.999c13.977,-0.126 25.271,-11.492 25.271,-25.5c0,-14.008 -11.295,-25.373 -25.271,-25.499z"/>
  <path id="svg_18" fill="#F4F4F4" d="m636.534516,519.025576l0,35.117c9.594,-0.126 17.336,-7.934 17.336,-17.559s-7.742,-17.431 -17.336,-17.558z"/>
  <path id="svg_19" fill="#49BAC0" d="m636.534516,480.820576l38.68,0c-6.41,-46.265 -21.301,-87.885 -38.68,-88.251l0,88.251z"/>
  <circle id="svg_20" r="9.485" fill="#466C6F" cy="813.338576" cx="400.059516"/>
  <circle id="svg_21" r="18.969999" fill="#466C6F" cy="689.143576" cx="533.295516"/>
  <circle id="svg_22" r="9.485" fill="#466C6F" cy="828.752576" cx="745.085516"/>
  <circle id="svg_23" r="12.814" fill="#5AA096" cy="752.923576" cx="575.117516"/>
  <circle id="svg_24" r="6.828" fill="#5AA096" cy="770.860039" cx="635.871955"/>
  <circle id="svg_25" r="9.485" fill="#66B2B2" cy="772.216576" cx="447.977516"/>
  <circle id="svg_26" r="9.486" fill="#66B2B2" cy="771.594576" cx="834.589516"/>
  <circle id="svg_27" r="16.006001" fill="#5AA096" cy="767.486576" cx="695.366516"/>
  <path transform="rotate(-35.3007926940918 660.7001953124999,827.2446289062499) " id="svg_28" fill="#5AA096" d="m685.599661,818.352135c-2.477,0 -4.869,0.353 -7.139,0.997c0.01,-0.332 0.025,-0.662 0.025,-0.997c0,-18.99 -15.395,-34.384 -34.385,-34.384c-18.988,0 -34.383,15.394 -34.383,34.384c0,18.989 15.395,34.384 34.383,34.384c5.699,0 11.068,-1.395 15.801,-3.848c2.113,12.283 12.811,21.633 25.697,21.633c14.406,0 26.084,-11.679 26.084,-26.085s-11.676,-26.084 -26.083,-26.084z"/>
  <circle id="svg_29" r="18.971001" fill="#5AA096" cy="778.853111" cx="608.768492"/>
  <path id="svg_30" fill="#5AA096" d="m539.322516,777.201576c-7.408,-7.408 -19.419,-7.408 -26.828,0c-1.363,1.364 -2.471,2.885 -3.333,4.503c-7.359,-6.02 -17.16,-8.981 -27.282,-7.339c-18.745,3.042 -31.474,20.704 -28.432,39.448c3.042,18.744 20.703,31.474 39.448,28.432c16.619,-2.697 28.5,-16.889 28.863,-33.135c6.126,1.368 12.797,-0.313 17.564,-5.081c7.409,-7.408 7.409,-19.419 0,-26.828z"/>
  <polygon id="svg_31" points="545.5895385742188,480.80755615234375 550.7825317382812,491.3285827636719 562.3924560546875,493.01556396484375 553.991455078125,501.2045593261719 555.9744873046875,512.7685852050781 545.5895385742188,507.3085632324219 535.2045288085938,512.7685852050781 537.1885375976562,501.2045593261719 528.7864990234375,493.01556396484375 540.3975219726562,491.3285827636719 " fill="#FFD326"/>
  <polygon id="svg_32" points="854.5885620117188,610.8075561523438 859.7825317382812,621.3285522460938 871.3915405273438,623.0145874023438 862.9915161132812,631.20458984375 864.9735107421875,642.7685546875 854.5885620117188,637.30859375 844.2045288085938,642.7685546875 846.1885375976562,631.20458984375 837.7865600585938,623.0145874023438 849.3975219726562,621.3285522460938 " fill="#FFD326"/>
  <polygon id="svg_33" points="409.5895080566406,641.8075561523438 414.7825012207031,652.3285522460938 426.39251708984375,654.0145874023438 417.99151611328125,662.20458984375 419.9745178222656,673.7685546875 409.5895080566406,668.30859375 399.20452880859375,673.7685546875 401.18853759765625,662.20458984375 392.7865295410156,654.0145874023438 404.39752197265625,652.3285522460938 " fill="#FFD326"/>
  <path transform="rotate(-35.3007926940918 815.5782470703126,718.7080078125001) " id="svg_34" fill="#5AA096" d="m840.477717,709.815553c-2.477,0 -4.869,0.353 -7.139,0.997c0.01,-0.332 0.025,-0.662 0.025,-0.997c0,-18.99 -15.395,-34.384 -34.385,-34.384c-18.988,0 -34.383,15.394 -34.383,34.384c0,18.989 15.395,34.384 34.383,34.384c5.699,0 11.068,-1.395 15.801,-3.848c2.113,12.283 12.811,21.633 25.697,21.633c14.406,0 26.084,-11.679 26.084,-26.085s-11.676,-26.084 -26.083,-26.084z"/>
 </g>
</svg>